PathFileType  4	(X/Y/Z) C:\Users\antoi\Documents\MyRepositories\mobilecap\ResultsAnalysis
DataRate	CameraRate	NumFrames	NumMarkers	Units	OrigDataRate	OrigDataStartFrame	OrigNumFrames
100.0	100.0	4	51	mm	100.0	165	263
Frame#	Time	r_knee			r_shank_antsup			r_ankle			r_calc			r_5meta			r_toe			L_knee			L_shank_antsup			L_ankle			L_calc			L_5meta			L_toe			r_sh2			r_sh3			r_sh4			L_sh2			L_sh3			r_thigh1			r_thigh2			r_thigh3			r_thigh4			r_thigh5			L_thigh1			L_thigh2			L_thigh3			L_thigh4			r.ASIS			r.PSIS			L.ASIS			L.PSIS			C7			R_Shoulder			L_Shoulder			R_Sternum			L_Sternum			R_humerus			R_elbow_med			R_elbow_lat			R_forearm			R_wrist_radius			R_wrist_ulna			L_humerus			L_elbow_med			L_elbow_lat			L_forearm			L_wrist_radius			L_wrist_ulna			R_HJC			L_HJC			R_HJC_reg			L_HJC_reg			
		X1	Y1	Z1	X2	Y2	Z2	X3	Y3	Z3	X4	Y4	Z4	X5	Y5	Z5	X6	Y6	Z6	X7	Y7	Z7	X8	Y8	Z8	X9	Y9	Z9	X10	Y10	Z10	X11	Y11	Z11	X12	Y12	Z12	X13	Y13	Z13	X14	Y14	Z14	X15	Y15	Z15	X16	Y16	Z16	X17	Y17	Z17	X18	Y18	Z18	X19	Y19	Z19	X20	Y20	Z20	X21	Y21	Z21	X22	Y22	Z22	X23	Y23	Z23	X24	Y24	Z24	X25	Y25	Z25	X26	Y26	Z26	X27	Y27	Z27	X28	Y28	Z28	X29	Y29	Z29	X30	Y30	Z30	X31	Y31	Z31	X32	Y32	Z32	X33	Y33	Z33	X34	Y34	Z34	X35	Y35	Z35	X36	Y36	Z36	X37	Y37	Z37	X38	Y38	Z38	X39	Y39	Z39	X40	Y40	Z40	X41	Y41	Z41	X42	Y42	Z42	X43	Y43	Z43	X44	Y44	Z44	X45	Y45	Z45	X46	Y46	Z46	X47	Y47	Z47	X48	Y48	Z48	X49	Y49	Z49	X50	Y50	Z50	X51	Y51	Z51	

165	1.64000000	-134.11700	486.91377	-419.90575	-121.31601	408.14164	-399.79291	-314.03474	104.28802	-414.82689	-383.46954	55.67729	-459.03901	-185.76373	38.64045	-371.61729	-147.50954	60.01811	-431.04773	-135.86400	500.88947	-771.05810	-133.30607	388.51464	-791.72485	-290.84625	102.43060	-761.59951	-360.47039	54.95457	-717.11897	-119.51592	58.52106	-752.20731	-151.01350	33.34586	-814.29822	-170.72358	306.66776	-393.35218	-187.26454	439.31337	-389.50089	-247.20722	342.66125	-383.01287	-213.75128	428.26996	-792.17299	-254.79816	315.48896	-791.46656	-298.33996	749.61251	-372.59567	-213.46136	683.51073	-388.03998	-226.07727	620.26973	-366.32847	-367.85231	659.79945	-378.13541	-271.48029	592.00225	-379.13203	-305.44012	773.21703	-752.76848	-197.17511	687.19725	-768.00372	-379.05913	681.28993	-759.43071	-266.31723	603.31272	-781.57528	-327.01253	837.54980	-423.11066	-489.67211	937.62925	-501.91909	-321.88957	840.91052	-683.11163	-488.44006	938.75640	-605.32981	-214.72463	1377.76141	-528.23202	-188.10690	1308.01668	-361.95445	-161.82653	1324.73389	-681.35233	-116.88495	1243.39602	-491.89399	-116.31666	1241.88436	-544.90900	-274.43344	1080.07781	-238.09052	-320.61867	973.42613	-294.17147	-308.03951	1000.99699	-206.78071	-156.95669	949.83360	-203.64121	-52.07167	915.16822	-225.16542	-68.73568	890.82187	-191.01334	-253.82034	1115.59188	-824.75025	-336.56856	1027.17741	-788.14202	-304.24066	1046.02787	-856.36196	-192.16614	909.32193	-871.69597	-119.39416	844.17631	-856.66191	-145.54238	823.48521	-878.62804	-430.05600	789.92634	-432.57821	-424.15742	792.91120	-662.85106	-419.54168	791.23260	-461.63175	-417.49710	793.10360	-633.25700	
166	1.65000000	-133.56102	485.87478	-419.98272	-120.51630	407.35486	-399.49174	-314.20027	104.10132	-414.85892	-383.55645	55.46024	-459.14854	-185.80595	38.60903	-371.61321	-147.58703	60.09600	-431.03670	-134.41974	499.69451	-771.16473	-132.11632	387.56399	-791.83673	-290.87378	102.32974	-761.36623	-360.44759	54.93961	-716.98139	-119.49196	58.56153	-752.24185	-151.01329	33.34936	-814.30844	-170.45899	305.89027	-393.37389	-186.20781	439.34149	-388.23093	-246.56579	342.44460	-382.96527	-212.36831	427.66502	-792.11330	-253.95918	314.80306	-791.37237	-299.22873	747.36812	-371.32090	-213.81306	681.69308	-386.86275	-226.48953	617.87765	-366.38463	-368.27271	657.09582	-378.49950	-271.80048	589.92266	-379.33631	-305.46476	770.78424	-752.92120	-196.69634	685.29417	-768.16474	-378.50036	678.32466	-758.87636	-265.25294	600.75330	-781.37910	-326.80127	834.54253	-422.20699	-488.83126	935.34725	-502.26166	-321.14447	836.95799	-682.57270	-487.45209	935.97659	-605.50720	-209.77141	1372.35928	-529.70018	-183.05442	1301.45316	-363.12319	-155.90670	1316.31457	-682.20449	-112.85510	1237.30034	-493.11267	-113.06697	1234.66243	-543.97264	-270.37433	1072.80613	-240.48025	-317.07363	967.02063	-297.72867	-303.86590	993.54718	-209.94168	-153.49992	939.26579	-208.72884	-49.72451	902.53340	-231.02416	-66.38495	878.19135	-197.28926	-248.89108	1107.26565	-825.19268	-332.26584	1020.08691	-787.94438	-299.10235	1037.32829	-855.71966	-189.94310	897.70675	-867.63044	-119.09292	831.03118	-851.74257	-146.31781	810.28512	-873.16825	-430.19976	787.54235	-432.00582	-423.69970	789.55348	-662.27357	-419.57487	788.70897	-460.69960	-417.27927	789.75558	-632.56955	
167	1.66000000	-132.41341	484.68306	-419.84511	-119.21293	406.31349	-399.04608	-314.31207	103.77985	-415.03866	-383.55668	55.32515	-459.26073	-185.86609	38.55979	-371.62769	-147.65858	60.15228	-431.03088	-132.50107	498.24343	-770.97924	-130.05653	386.34904	-792.21328	-290.77313	102.27476	-761.13802	-360.45037	54.89945	-716.73881	-119.43979	58.59732	-752.24130	-151.01346	33.36205	-814.30213	-169.85656	304.92254	-393.37466	-185.16413	440.15030	-386.05102	-245.24209	342.04748	-382.67468	-210.47805	426.87969	-792.04171	-252.49756	314.32922	-791.25247	-299.65095	744.81093	-369.87826	-213.69716	679.71311	-385.78922	-226.41768	615.07168	-366.61414	-368.27037	654.38942	-378.55557	-271.67480	587.52885	-379.49510	-305.17045	767.90967	-753.53869	-195.94055	683.02818	-768.76889	-377.70170	674.91264	-758.12550	-263.89217	597.78841	-781.20679	-326.27184	831.50824	-421.30693	-487.77547	932.77137	-502.59620	-320.09361	833.18153	-682.39278	-486.40056	932.94256	-605.71442	-205.49263	1367.07075	-530.91247	-178.42083	1294.53920	-364.00549	-150.36414	1307.91886	-683.35796	-109.17137	1231.45472	-494.32788	-108.22880	1228.90866	-546.36626	-266.44495	1064.93521	-242.66742	-313.56822	960.07236	-301.17485	-299.61788	985.05064	-213.65379	-149.93710	928.43293	-213.83568	-47.13701	889.99515	-236.84224	-64.03639	865.92272	-203.08721	-244.11433	1098.14361	-825.38378	-327.79729	1012.10342	-787.76774	-293.82381	1027.76826	-855.26737	-187.42827	885.58318	-864.00794	-118.59519	817.31631	-846.98983	-145.98872	796.59069	-868.03415	-429.87298	784.92165	-431.60002	-422.86648	786.14697	-661.85826	-419.15323	786.01288	-459.71294	-416.85591	786.29874	-632.06611	
168	1.67000000	-130.65530	483.33657	-419.50580	-117.46927	404.93449	-398.73594	-314.35709	103.47352	-415.25836	-383.49718	55.33879	-459.23010	-185.90927	38.54128	-371.62910	-147.71766	60.18306	-431.01137	-130.18247	496.57606	-770.74251	-127.73574	384.92923	-792.19392	-290.61241	102.09917	-760.77468	-360.35252	54.83056	-716.43360	-119.39855	58.60627	-752.22404	-151.02828	33.37559	-814.25118	-168.77034	303.84805	-393.35548	-183.61385	440.25249	-384.72900	-243.75822	341.21691	-382.36984	-208.15564	425.99673	-792.23703	-250.70566	313.92202	-791.02058	-299.20111	742.11233	-368.62190	-212.93152	677.66157	-384.89091	-225.60249	612.08778	-366.96236	-367.58748	651.70860	-378.43984	-270.77292	584.90922	-379.71413	-304.43971	764.74041	-754.42753	-194.91492	680.37264	-769.50623	-376.60882	671.30040	-757.40985	-262.46429	594.52802	-780.67738	-325.30401	828.50540	-420.67066	-486.55331	929.91125	-502.84762	-318.96066	829.48055	-682.34604	-485.23352	929.74378	-605.96975	-201.78849	1361.94827	-532.01097	-174.26816	1287.47544	-364.50066	-145.22494	1299.86475	-685.18051	-105.78984	1225.91183	-495.47732	-103.38549	1224.13868	-549.86187	-262.71622	1056.48726	-244.80945	-309.86903	952.64931	-304.67124	-295.33674	976.05629	-217.37758	-146.25466	917.48769	-218.68624	-44.16765	877.79997	-242.36002	-61.46075	854.07145	-208.25267	-239.47833	1088.21996	-825.23956	-323.02556	1003.20894	-787.50833	-288.48738	1017.41707	-854.88259	-184.84564	872.89003	-860.85357	-117.76511	803.13858	-842.34374	-145.38562	782.75659	-863.33400	-429.04750	782.14810	-431.28264	-421.81597	782.65731	-661.53633	-418.28127	783.06810	-458.97726	-416.07063	782.78805	-631.72092	
